<svg width="24" height="24" viewBox="0 0 24 24" fill="none" xmlns="http://www.w3.org/2000/svg">
<path d="M12 13.8963C13.0473 13.8963 13.8963 13.0473 13.8963 12C13.8963 10.9527 13.0473 10.1037 12 10.1037C10.9526 10.1037 10.1036 10.9527 10.1036 12C10.1036 13.0473 10.9526 13.8963 12 13.8963Z" fill="white"/>
<path d="M14.4252 7.20789H9.57472C8.94658 7.20789 8.34416 7.45742 7.89999 7.90158C7.45583 8.34575 7.2063 8.94816 7.2063 9.57631V14.4253C7.2063 15.0534 7.45583 15.6558 7.89999 16.1C8.34416 16.5441 8.94658 16.7937 9.57472 16.7937H14.4252C15.0534 16.7937 15.6558 16.5441 16.1 16.1C16.5441 15.6558 16.7937 15.0534 16.7937 14.4253V9.57473C16.7932 8.94686 16.5435 8.34485 16.0994 7.90102C15.6553 7.4572 15.0531 7.20789 14.4252 7.20789ZM12 15.1042C11.386 15.1045 10.7856 14.9227 10.2749 14.5818C9.76425 14.2409 9.36613 13.7562 9.13094 13.189C8.89575 12.6218 8.83405 11.9976 8.95365 11.3954C9.07325 10.7931 9.36877 10.2398 9.80284 9.80554C10.2369 9.37125 10.79 9.07545 11.3922 8.95554C11.9944 8.83564 12.6187 8.89702 13.186 9.13192C13.7533 9.36683 14.2382 9.7647 14.5794 10.2752C14.9205 10.7857 15.1026 11.386 15.1026 12C15.1018 12.8227 14.7747 13.6116 14.193 14.1935C13.6114 14.7754 12.8227 15.1029 12 15.1042ZM15.1216 9.66315C14.9697 9.66346 14.8211 9.61868 14.6946 9.53448C14.5682 9.45028 14.4696 9.33045 14.4113 9.19017C14.3531 9.04989 14.3377 8.89546 14.3673 8.74646C14.3968 8.59746 14.47 8.46058 14.5774 8.35317C14.6848 8.24576 14.8217 8.17264 14.9707 8.14308C15.1197 8.11352 15.2741 8.12885 15.4144 8.18713C15.5547 8.2454 15.6745 8.344 15.7587 8.47044C15.8429 8.59687 15.8877 8.74545 15.8874 8.89736C15.8869 9.10033 15.8061 9.29487 15.6626 9.43839C15.5191 9.58192 15.3245 9.66273 15.1216 9.66315Z" fill="white"/>
<path d="M12 0C9.62663 0 7.30655 0.703788 5.33316 2.02236C3.35977 3.34094 1.8217 5.21509 0.913451 7.4078C0.00519938 9.60051 -0.232441 12.0133 0.230582 14.3411C0.693605 16.6689 1.83649 18.8071 3.51472 20.4853C5.19295 22.1635 7.33115 23.3064 9.65892 23.7694C11.9867 24.2324 14.3995 23.9948 16.5922 23.0866C18.7849 22.1783 20.6591 20.6402 21.9776 18.6668C23.2962 16.6935 24 14.3734 24 12C24 8.8174 22.7357 5.76516 20.4853 3.51472C18.2348 1.26428 15.1826 0 12 0ZM18 14.4253C17.9992 15.3731 17.6223 16.2818 16.9521 16.9521C16.2819 17.6223 15.3731 17.9992 14.4253 18H9.57474C8.62705 17.9987 7.71853 17.6217 7.04841 16.9516C6.37828 16.2815 6.00126 15.373 6.00001 14.4253V9.57474C6.00126 8.62704 6.37828 7.71852 7.04841 7.0484C7.71853 6.37828 8.62705 6.00125 9.57474 6H14.4253C15.373 6.00125 16.2815 6.37828 16.9516 7.0484C17.6217 7.71852 17.9988 8.62704 18 9.57474V14.4253Z" fill="white"/>
</svg>
