<svg width="26" height="26" viewBox="0 0 26 26" fill="none" xmlns="http://www.w3.org/2000/svg">
<g clip-path="url(#clip0_47_1234)">
<path d="M13 0C5.82141 0 0 5.82141 0 13C0 20.1786 5.82141 26 13 26C20.1786 26 26 20.1786 26 13C26 5.82141 20.1786 0 13 0ZM9.22238 19.6523H6.05627V10.1271H9.22233L9.22238 19.6523ZM7.63938 8.82639H7.61876C6.55632 8.82639 5.8692 8.09504 5.8692 7.18098C5.8692 6.2463 6.57734 5.53516 7.66045 5.53516C8.74352 5.53516 9.41002 6.2463 9.43064 7.18098C9.43064 8.09504 8.74352 8.82644 7.63938 8.82644V8.82639ZM20.6387 19.6523H17.473V14.5565C17.473 13.2759 17.0146 12.4025 15.869 12.4025C14.9944 12.4025 14.4735 12.9917 14.2446 13.5604C14.1609 13.7639 14.1404 14.0484 14.1404 14.333V19.6523H10.9745C10.9745 19.6523 11.016 11.0207 10.9745 10.1271H14.1404V11.4757C14.5612 10.8268 15.314 9.90356 16.9937 9.90356C19.0768 9.90356 20.6387 11.2649 20.6387 14.1906V19.6523Z" fill="white"/>
</g>
<defs>
<clipPath id="clip0_47_1234">
<rect width="26" height="26" fill="white"/>
</clipPath>
</defs>
</svg>
