<svg width="90" height="15" viewBox="0 0 90 15" fill="none" xmlns="http://www.w3.org/2000/svg">
<path d="M80.631 6V2.29H79.161V1.1H83.459V2.29H81.989V6H80.631ZM83.8451 6V1.1H85.2801L86.4491 2.997L87.6181 1.1H89.0531V6H87.7021V3.186L86.4491 5.104H86.4211L85.1751 3.2V6H83.8451Z" fill="white"/>
<path d="M7.81104 4.78613L9.05615 3.26709H1.26172V1.02588H13.9536L6.69043 10.1484L5.39551 11.7588H13.5469V14H0.622559L7.81104 4.78613ZM15.5271 1.02588H26.5754V3.3335H18.1585V5.92334H25.6126V8.08984H18.1585V11.7007H26.7498V14H15.5271V1.02588ZM29.145 1.02588H31.7764L39.8613 5.25928V1.02588H42.4927V14H39.8613V8.04834L31.7764 3.83984V14H29.145V1.02588ZM45.3196 1.02588H47.9676V14H45.3196V1.02588ZM54.729 3.3335H49.9395V1.02588H62.1499V3.3335H57.3604V14H54.729V3.3335ZM64.4456 1.02588H67.077V4.4126H75.1453V1.02588H77.785V14H75.1453V6.66211H67.077V14H64.4456V1.02588Z" fill="white"/>
</svg>
